<svg xmlns="http://www.w3.org/2000/svg" xmlns:xlink="http://www.w3.org/1999/xlink" xml:space="preserve" viewBox="0 0 256 256">
  <defs>
    <linearGradient id="a" x2="1" gradientTransform="scale(236.85 -236.85) rotate(26.73 10.08 5.46)" gradientUnits="userSpaceOnUse">
      <stop offset="0" stop-color="#ce4f4d"/>
      <stop offset="1" stop-color="#db2736"/>
      <stop offset="1" stop-color="#db2736"/>
    </linearGradient>
    <linearGradient id="b" x2="1" gradientTransform="scale(165.07 -165.07) rotate(43.51 11.37 4.34)" gradientUnits="userSpaceOnUse">
      <stop offset="0" stop-color="#ef6b5d"/>
      <stop offset=".92" stop-color="#fd9093"/>
      <stop offset="1" stop-color="#fd9093"/>
    </linearGradient>
    <linearGradient id="c" x2="1" gradientTransform="matrix(119.98 23.531 23.531 -119.98 802.66 1064.8)" gradientUnits="userSpaceOnUse">
      <stop offset="0" stop-color="#f5807d"/>
      <stop offset=".02" stop-color="#f5807d"/>
      <stop offset=".68" stop-color="#e15d58"/>
      <stop offset="1" stop-color="#e15d58"/>
    </linearGradient>
    <linearGradient id="d" x2="1" gradientTransform="scale(231.09 -231.09) rotate(-55.71 -.92 -5.73)" gradientUnits="userSpaceOnUse">
      <stop offset="0" stop-color="#db3e3b"/>
      <stop offset=".24" stop-color="#db3e3b"/>
      <stop offset="1" stop-color="#f66864"/>
    </linearGradient>
    <linearGradient id="e" x2="1" gradientTransform="matrix(105.23 61.242 61.242 -105.23 826.43 921.52)" gradientUnits="userSpaceOnUse">
      <stop offset="0" stop-color="#e15d58"/>
      <stop offset="0" stop-color="#e15d58"/>
      <stop offset=".74" stop-color="#db4d49"/>
      <stop offset="1" stop-color="#db4d49"/>
    </linearGradient>
    <linearGradient id="f" x2="1" gradientTransform="scale(149.27 -149.27) rotate(-47.81 -3.15 -11.37)" gradientUnits="userSpaceOnUse">
      <stop offset="0" stop-color="#f36660"/>
      <stop offset=".52" stop-color="#f36660"/>
      <stop offset="1" stop-color="#f08975"/>
    </linearGradient>
    <linearGradient xlink:href="#a" id="m" x2="1" gradientTransform="scale(236.85 -236.85) rotate(26.73 10.08 5.46)" gradientUnits="userSpaceOnUse"/>
    <linearGradient xlink:href="#b" id="n" x2="1" gradientTransform="scale(165.07 -165.07) rotate(43.51 11.37 4.34)" gradientUnits="userSpaceOnUse"/>
    <linearGradient xlink:href="#c" id="o" x2="1" gradientTransform="matrix(119.98 23.531 23.531 -119.98 802.66 1064.8)" gradientUnits="userSpaceOnUse"/>
    <linearGradient xlink:href="#d" id="p" x2="1" gradientTransform="scale(231.09 -231.09) rotate(-55.71 -.92 -5.73)" gradientUnits="userSpaceOnUse"/>
    <linearGradient xlink:href="#e" id="q" x2="1" gradientTransform="matrix(105.23 61.242 61.242 -105.23 826.43 921.52)" gradientUnits="userSpaceOnUse"/>
    <linearGradient xlink:href="#f" id="r" x2="1" gradientTransform="scale(149.27 -149.27) rotate(-47.81 -3.15 -11.37)" gradientUnits="userSpaceOnUse"/>
    <linearGradient xlink:href="#a" id="g" x2="1" gradientTransform="scale(236.85 -236.85) rotate(26.73 10.08 5.46)" gradientUnits="userSpaceOnUse"/>
    <linearGradient xlink:href="#b" id="h" x2="1" gradientTransform="scale(165.07 -165.07) rotate(43.51 11.37 4.34)" gradientUnits="userSpaceOnUse"/>
    <linearGradient xlink:href="#c" id="i" x2="1" gradientTransform="matrix(119.98 23.531 23.531 -119.98 802.66 1064.8)" gradientUnits="userSpaceOnUse"/>
    <linearGradient xlink:href="#d" id="j" x2="1" gradientTransform="scale(231.09 -231.09) rotate(-55.71 -.92 -5.73)" gradientUnits="userSpaceOnUse"/>
    <linearGradient xlink:href="#e" id="k" x2="1" gradientTransform="matrix(105.23 61.242 61.242 -105.23 826.43 921.52)" gradientUnits="userSpaceOnUse"/>
    <linearGradient xlink:href="#f" id="l" x2="1" gradientTransform="scale(149.27 -149.27) rotate(-47.81 -3.15 -11.37)" gradientUnits="userSpaceOnUse"/>
  </defs>
  <path fill="url(#g)" d="M1000.2 750 793.1 855.62l207.1 101.48Z" transform="matrix(.4461 0 0 -.44504 -317.75 573.34)"/>
  <path fill="none" stroke="#d53b41" stroke-miterlimit="10" stroke-width=".05" d="m0 0-207.1 105.62L0 207.1Z" transform="matrix(.4461 0 0 -.44504 128.43 239.56)"/>
  <path fill="url(#h)" d="M1000.2 957.1V1250l122.29-233.2z" transform="matrix(.4461 0 0 -.44504 -317.75 573.34)"/>
  <path fill="none" stroke="#ec7268" stroke-miterlimit="10" stroke-width=".05" d="M0 0v292.9L122.29 59.7Z" transform="matrix(.4461 0 0 -.44504 128.43 147.4)"/>
  <path fill="url(#i)" d="M1000.2 957.1V1250l-122.16-232.94Z" transform="matrix(.4461 0 0 -.44504 -317.75 573.34)"/>
  <path fill="none" stroke="#e15d58" stroke-miterlimit="10" stroke-width=".05" d="M0 0v292.9L-122.16 59.96Z" transform="matrix(.4461 0 0 -.44504 128.43 147.4)"/>
  <path fill="url(#j)" d="m1000.2 957.1 206.77-101.92L1000.2 750Z" transform="matrix(.4461 0 0 -.44504 -317.75 573.34)"/>
  <path fill="none" stroke="#e95450" stroke-miterlimit="10" stroke-width=".05" d="m0 0 206.77-101.92L0-207.1Z" transform="matrix(.4461 0 0 -.44504 128.43 147.4)"/>
  <path fill="url(#k)" d="m878 1017.1 122.16-59.95-207.1-101.48z" transform="matrix(.4461 0 0 -.44504 -317.75 573.34)"/>
  <path fill="none" stroke="#dc504c" stroke-miterlimit="10" stroke-width=".05" d="m0 0 122.16-59.95-207.1-101.48z" transform="matrix(.4461 0 0 -.44504 73.92 120.7)"/>
  <path fill="url(#l)" d="m1122.5 1016.8 84.48-161.61-206.77 101.92z" transform="matrix(.4461 0 0 -.44504 -317.75 573.34)"/>
  <path fill="none" stroke="#ec6861" stroke-miterlimit="10" stroke-width=".05" d="m0 0 84.48-161.62L-122.3-59.7Z" transform="matrix(.4461 0 0 -.44504 182.99 120.83)"/>
  <path fill="url(#m)" d="M1000.2 750 793.1 855.62l207.1 101.48Z" transform="matrix(.4461 0 0 -.44504 -317.75 573.34)"/>
  <path fill="none" stroke="#d53b41" stroke-miterlimit="10" stroke-width=".05" d="m0 0-207.1 105.62L0 207.1Z" transform="matrix(.4461 0 0 -.44504 128.43 239.56)"/>
  <path fill="url(#n)" d="M1000.2 957.1V1250l122.29-233.2z" transform="matrix(.4461 0 0 -.44504 -317.75 573.34)"/>
  <path fill="none" stroke="#ec7268" stroke-miterlimit="10" stroke-width=".05" d="M0 0v292.9L122.29 59.7Z" transform="matrix(.4461 0 0 -.44504 128.43 147.4)"/>
  <path fill="url(#o)" d="M1000.2 957.1V1250l-122.16-232.94Z" transform="matrix(.4461 0 0 -.44504 -317.75 573.34)"/>
  <path fill="none" stroke="#e15d58" stroke-miterlimit="10" stroke-width=".05" d="M0 0v292.9L-122.16 59.96Z" transform="matrix(.4461 0 0 -.44504 128.43 147.4)"/>
  <path fill="url(#p)" d="m1000.2 957.1 206.77-101.92L1000.2 750Z" transform="matrix(.4461 0 0 -.44504 -317.75 573.34)"/>
  <path fill="none" stroke="#e95450" stroke-miterlimit="10" stroke-width=".05" d="m0 0 206.77-101.92L0-207.1Z" transform="matrix(.4461 0 0 -.44504 128.43 147.4)"/>
  <path fill="url(#q)" d="m878 1017.1 122.16-59.95-207.1-101.48z" transform="matrix(.4461 0 0 -.44504 -317.75 573.34)"/>
  <path fill="none" stroke="#dc504c" stroke-miterlimit="10" stroke-width=".05" d="m0 0 122.16-59.95-207.1-101.48z" transform="matrix(.4461 0 0 -.44504 73.92 120.7)"/>
  <path fill="url(#r)" d="m1122.5 1016.8 84.48-161.61-206.77 101.92z" transform="matrix(.4461 0 0 -.44504 -317.75 573.34)"/>
  <path fill="none" stroke="#ec6861" stroke-miterlimit="10" stroke-width=".05" d="m0 0 84.48-161.62L-122.3-59.7Z" transform="matrix(.4461 0 0 -.44504 182.99 120.83)"/>
</svg>
