<svg xmlns="http://www.w3.org/2000/svg" xmlns:xlink="http://www.w3.org/1999/xlink" xml:space="preserve" viewBox="0 0 256 256">
  <defs>
    <linearGradient id="a" x2="1" gradientTransform="scale(272.83 -272.83) rotate(-55.71 -.73 -4.75)" gradientUnits="userSpaceOnUse">
      <stop offset="0" stop-color="#4c8348"/>
      <stop offset=".24" stop-color="#508e54"/>
      <stop offset="1" stop-color="#90db85"/>
    </linearGradient>
    <linearGradient id="b" x2="1" gradientTransform="scale(104.4 -104.4) rotate(43.51 17.73 7.49)" gradientUnits="userSpaceOnUse">
      <stop offset="0" stop-color="#8dd981"/>
      <stop offset="1" stop-color="#aae7a1"/>
    </linearGradient>
    <linearGradient id="c" x2="1" gradientTransform="scale(240.6 -240.6) rotate(-47.81 -1.94 -7.02)" gradientUnits="userSpaceOnUse">
      <stop offset="0" stop-color="#84d579"/>
      <stop offset="1" stop-color="#aae7a1"/>
    </linearGradient>
    <linearGradient id="d" x2="1" gradientTransform="matrix(-107.33 0 0 107.33 1028.1 1103.6)" gradientUnits="userSpaceOnUse">
      <stop offset="0" stop-color="#8dd981"/>
      <stop offset=".76" stop-color="#6fb063"/>
      <stop offset=".84" stop-color="#6fb063"/>
      <stop offset="1" stop-color="#6fb063"/>
    </linearGradient>
    <linearGradient id="e" x2="1" gradientTransform="scale(236.85 -236.85) rotate(26.73 10.08 5.46)" gradientUnits="userSpaceOnUse">
      <stop offset="0" stop-color="#6ba75f"/>
      <stop offset="1" stop-color="#4d8148"/>
    </linearGradient>
    <linearGradient id="f" x2="1" gradientTransform="scale(95.482 -95.482) rotate(-71.57 -1.94 -11.33)" gradientUnits="userSpaceOnUse">
      <stop offset="0" stop-color="#6fb063"/>
      <stop offset=".85" stop-color="#629d59"/>
      <stop offset="1" stop-color="#629d59"/>
    </linearGradient>
    <linearGradient xlink:href="#a" id="m" x2="1" gradientTransform="scale(272.83 -272.83) rotate(-55.71 -.73 -4.75)" gradientUnits="userSpaceOnUse"/>
    <linearGradient xlink:href="#b" id="n" x2="1" gradientTransform="scale(104.4 -104.4) rotate(43.51 17.73 7.49)" gradientUnits="userSpaceOnUse"/>
    <linearGradient xlink:href="#c" id="o" x2="1" gradientTransform="scale(240.6 -240.6) rotate(-47.81 -1.94 -7.02)" gradientUnits="userSpaceOnUse"/>
    <linearGradient xlink:href="#d" id="p" x2="1" gradientTransform="matrix(-107.33 0 0 107.33 1028.1 1103.6)" gradientUnits="userSpaceOnUse"/>
    <linearGradient xlink:href="#e" id="q" x2="1" gradientTransform="scale(236.85 -236.85) rotate(26.73 10.08 5.46)" gradientUnits="userSpaceOnUse"/>
    <linearGradient xlink:href="#f" id="r" x2="1" gradientTransform="scale(95.482 -95.482) rotate(-71.57 -1.94 -11.33)" gradientUnits="userSpaceOnUse"/>
    <linearGradient xlink:href="#a" id="g" x2="1" gradientTransform="scale(272.83 -272.83) rotate(-55.71 -.73 -4.75)" gradientUnits="userSpaceOnUse"/>
    <linearGradient xlink:href="#b" id="h" x2="1" gradientTransform="scale(104.4 -104.4) rotate(43.51 17.73 7.49)" gradientUnits="userSpaceOnUse"/>
    <linearGradient xlink:href="#c" id="i" x2="1" gradientTransform="scale(240.6 -240.6) rotate(-47.81 -1.94 -7.02)" gradientUnits="userSpaceOnUse"/>
    <linearGradient xlink:href="#d" id="j" x2="1" gradientTransform="matrix(-107.33 0 0 107.33 1028.1 1103.6)" gradientUnits="userSpaceOnUse"/>
    <linearGradient xlink:href="#e" id="k" x2="1" gradientTransform="scale(236.85 -236.85) rotate(26.73 10.08 5.46)" gradientUnits="userSpaceOnUse"/>
    <linearGradient xlink:href="#f" id="l" x2="1" gradientTransform="scale(95.482 -95.482) rotate(-71.57 -1.94 -11.33)" gradientUnits="userSpaceOnUse"/>
  </defs>
  <path fill="url(#g)" d="m1000.2 957.1 206.77-101.92L1000.2 750Z" transform="matrix(.50597 0 0 -.51186 -377.98 639.88)"/>
  <path fill="none" stroke="#6fb46c" stroke-miterlimit="10" stroke-width=".05" d="m0 0 206.77-101.92L0-207.1Z" transform="matrix(.50597 0 0 -.51186 128.1 149.98)"/>
  <path fill="url(#h)" d="M1000.2 957.1V1250l122.29-233.2z" transform="matrix(.50597 0 0 -.51186 -377.98 639.88)"/>
  <path fill="none" stroke="#8dd981" stroke-miterlimit="10" stroke-width=".05" d="M0 0v292.9L122.29 59.7Z" transform="matrix(.50597 0 0 -.51186 128.1 149.98)"/>
  <path fill="url(#i)" d="m1122.5 1016.8 84.48-161.61-206.77 101.92z" transform="matrix(.50597 0 0 -.51186 -377.98 639.88)"/>
  <path fill="none" stroke="#8ad87f" stroke-miterlimit="10" stroke-width=".05" d="m0 0 84.48-161.62L-122.3-59.7Z" transform="matrix(.50597 0 0 -.51186 189.97 119.42)"/>
  <path fill="url(#j)" d="M1000.2 957.1V1250l-122.16-232.94Z" transform="matrix(.50597 0 0 -.51186 -377.98 639.88)"/>
  <path fill="none" stroke="#72b466" stroke-miterlimit="10" stroke-width=".05" d="M0 0v292.9L-122.16 59.96Z" transform="matrix(.50597 0 0 -.51186 128.1 149.98)"/>
  <path fill="url(#k)" d="M1000.2 750 793.1 855.62l207.1 101.48Z" transform="matrix(.50597 0 0 -.51186 -377.98 639.88)"/>
  <path fill="none" stroke="#5d9554" stroke-miterlimit="10" stroke-width=".05" d="m0 0-207.1 105.62L0 207.1Z" transform="matrix(.50597 0 0 -.51186 128.1 255.98)"/>
  <path fill="url(#l)" d="m878 1017.1 122.16-59.95-207.1-101.48z" transform="matrix(.50597 0 0 -.51186 -377.98 639.88)"/>
  <path fill="none" stroke="#6fb063" stroke-miterlimit="10" stroke-width=".05" d="m0 0 122.16-59.95-207.1-101.48z" transform="matrix(.50597 0 0 -.51186 66.26 119.26)"/>
  <path fill="url(#m)" d="m1000.2 957.1 206.77-101.92L1000.2 750Z" transform="matrix(.50597 0 0 -.51186 -377.98 639.88)"/>
  <path fill="none" stroke="#6fb46c" stroke-miterlimit="10" stroke-width=".05" d="m0 0 206.77-101.92L0-207.1Z" transform="matrix(.50597 0 0 -.51186 128.1 149.98)"/>
  <path fill="url(#n)" d="M1000.2 957.1V1250l122.29-233.2z" transform="matrix(.50597 0 0 -.51186 -377.98 639.88)"/>
  <path fill="none" stroke="#8dd981" stroke-miterlimit="10" stroke-width=".05" d="M0 0v292.9L122.29 59.7Z" transform="matrix(.50597 0 0 -.51186 128.1 149.98)"/>
  <path fill="url(#o)" d="m1122.5 1016.8 84.48-161.61-206.77 101.92z" transform="matrix(.50597 0 0 -.51186 -377.98 639.88)"/>
  <path fill="none" stroke="#8ad87f" stroke-miterlimit="10" stroke-width=".05" d="m0 0 84.48-161.62L-122.3-59.7Z" transform="matrix(.50597 0 0 -.51186 189.97 119.42)"/>
  <path fill="url(#p)" d="M1000.2 957.1V1250l-122.16-232.94Z" transform="matrix(.50597 0 0 -.51186 -377.98 639.88)"/>
  <path fill="none" stroke="#72b466" stroke-miterlimit="10" stroke-width=".05" d="M0 0v292.9L-122.16 59.96Z" transform="matrix(.50597 0 0 -.51186 128.1 149.98)"/>
  <path fill="url(#q)" d="M1000.2 750 793.1 855.62l207.1 101.48Z" transform="matrix(.50597 0 0 -.51186 -377.98 639.88)"/>
  <path fill="none" stroke="#5d9554" stroke-miterlimit="10" stroke-width=".05" d="m0 0-207.1 105.62L0 207.1Z" transform="matrix(.50597 0 0 -.51186 128.1 255.98)"/>
  <path fill="url(#r)" d="m878 1017.1 122.16-59.95-207.1-101.48z" transform="matrix(.50597 0 0 -.51186 -377.98 639.88)"/>
  <path fill="none" stroke="#6fb063" stroke-miterlimit="10" stroke-width=".05" d="m0 0 122.16-59.95-207.1-101.48z" transform="matrix(.50597 0 0 -.51186 66.26 119.26)"/>
</svg>
