<svg xmlns="http://www.w3.org/2000/svg" xmlns:xlink="http://www.w3.org/1999/xlink" xml:space="preserve" viewBox="0 0 256 256">
  <defs>
    <linearGradient id="a" x2="1" gradientTransform="scale(236.85 -236.85) rotate(26.73 10.08 5.46)" gradientUnits="userSpaceOnUse">
      <stop offset="0" stop-color="#8175a5"/>
      <stop offset="1" stop-color="#63577f"/>
    </linearGradient>
    <linearGradient id="b" x2="1" gradientTransform="scale(272.83 -272.83) rotate(-55.71 -.73 -4.75)" gradientUnits="userSpaceOnUse">
      <stop offset="0" stop-color="#655981"/>
      <stop offset=".24" stop-color="#73628c"/>
      <stop offset="1" stop-color="#b3a5da"/>
    </linearGradient>
    <linearGradient id="c" x2="1" gradientTransform="translate(-.03 2103.6) scale(206.85)" gradientUnits="userSpaceOnUse">
      <stop offset="0" stop-color="#73628c"/>
      <stop offset=".61" stop-color="#b3a5da"/>
      <stop offset="1" stop-color="#b3a5da"/>
    </linearGradient>
    <linearGradient id="d" x2="1" gradientTransform="scale(240.6 -240.6) rotate(-47.81 -1.94 -7.02)" gradientUnits="userSpaceOnUse">
      <stop offset="0" stop-color="#afa0d8"/>
      <stop offset="1" stop-color="#cec6e6"/>
    </linearGradient>
    <linearGradient id="e" x2="1" gradientTransform="scale(72.066 -72.066) rotate(-71.57 -2.57 -15.01)" gradientUnits="userSpaceOnUse">
      <stop offset="0" stop-color="#887bae"/>
      <stop offset="1" stop-color="#796d9b"/>
    </linearGradient>
    <linearGradient id="f" x2="1" gradientTransform="matrix(-107.33 0 0 107.33 1028.1 1103.6)" gradientUnits="userSpaceOnUse">
      <stop offset="0" stop-color="#afa0d8"/>
      <stop offset="1" stop-color="#887bae"/>
    </linearGradient>
    <linearGradient id="g" x2="1" gradientTransform="scale(104.4 -104.4) rotate(43.51 17.8 7.32)" gradientUnits="userSpaceOnUse">
      <stop offset="0" stop-color="#afa0d8"/>
      <stop offset="1" stop-color="#cec6e6"/>
    </linearGradient>
    <linearGradient xlink:href="#a" id="I" x2="1" gradientTransform="scale(236.85 -236.85) rotate(26.73 10.08 5.46)" gradientUnits="userSpaceOnUse"/>
    <linearGradient xlink:href="#b" id="J" x2="1" gradientTransform="scale(272.83 -272.83) rotate(-55.71 -.73 -4.75)" gradientUnits="userSpaceOnUse"/>
    <linearGradient xlink:href="#c" id="K" x2="1" gradientTransform="translate(-.03 2103.6) scale(206.85)" gradientUnits="userSpaceOnUse"/>
    <linearGradient xlink:href="#d" id="L" x2="1" gradientTransform="scale(240.6 -240.6) rotate(-47.81 -1.94 -7.02)" gradientUnits="userSpaceOnUse"/>
    <linearGradient xlink:href="#e" id="M" x2="1" gradientTransform="scale(72.066 -72.066) rotate(-71.57 -2.57 -15.01)" gradientUnits="userSpaceOnUse"/>
    <linearGradient xlink:href="#f" id="N" x2="1" gradientTransform="matrix(-107.33 0 0 107.33 1028.1 1103.6)" gradientUnits="userSpaceOnUse"/>
    <linearGradient xlink:href="#g" id="O" x2="1" gradientTransform="scale(104.4 -104.4) rotate(43.51 17.8 7.32)" gradientUnits="userSpaceOnUse"/>
    <linearGradient xlink:href="#a" id="B" x2="1" gradientTransform="scale(236.85 -236.85) rotate(26.73 10.08 5.46)" gradientUnits="userSpaceOnUse"/>
    <linearGradient xlink:href="#b" id="C" x2="1" gradientTransform="scale(272.83 -272.83) rotate(-55.71 -.73 -4.75)" gradientUnits="userSpaceOnUse"/>
    <linearGradient xlink:href="#c" id="D" x2="1" gradientTransform="translate(-.03 2103.6) scale(206.85)" gradientUnits="userSpaceOnUse"/>
    <linearGradient xlink:href="#d" id="E" x2="1" gradientTransform="scale(240.6 -240.6) rotate(-47.81 -1.94 -7.02)" gradientUnits="userSpaceOnUse"/>
    <linearGradient xlink:href="#e" id="F" x2="1" gradientTransform="scale(72.066 -72.066) rotate(-71.57 -2.57 -15.01)" gradientUnits="userSpaceOnUse"/>
    <linearGradient xlink:href="#f" id="G" x2="1" gradientTransform="matrix(-107.33 0 0 107.33 1028.1 1103.6)" gradientUnits="userSpaceOnUse"/>
    <linearGradient xlink:href="#g" id="H" x2="1" gradientTransform="scale(104.4 -104.4) rotate(43.51 17.8 7.32)" gradientUnits="userSpaceOnUse"/>
    <linearGradient xlink:href="#a" id="n" x2="1" gradientTransform="scale(236.85 -236.85) rotate(26.73 10.08 5.46)" gradientUnits="userSpaceOnUse"/>
    <linearGradient xlink:href="#b" id="o" x2="1" gradientTransform="scale(272.83 -272.83) rotate(-55.71 -.73 -4.75)" gradientUnits="userSpaceOnUse"/>
    <linearGradient xlink:href="#c" id="p" x2="1" gradientTransform="translate(-.03 2103.6) scale(206.85)" gradientUnits="userSpaceOnUse"/>
    <linearGradient xlink:href="#d" id="q" x2="1" gradientTransform="scale(240.6 -240.6) rotate(-47.81 -1.94 -7.02)" gradientUnits="userSpaceOnUse"/>
    <linearGradient xlink:href="#e" id="r" x2="1" gradientTransform="scale(72.066 -72.066) rotate(-71.57 -2.57 -15.01)" gradientUnits="userSpaceOnUse"/>
    <linearGradient xlink:href="#f" id="s" x2="1" gradientTransform="matrix(-107.33 0 0 107.33 1028.1 1103.6)" gradientUnits="userSpaceOnUse"/>
    <linearGradient xlink:href="#g" id="t" x2="1" gradientTransform="scale(104.4 -104.4) rotate(43.51 17.8 7.32)" gradientUnits="userSpaceOnUse"/>
    <linearGradient xlink:href="#a" id="u" x2="1" gradientTransform="scale(236.85 -236.85) rotate(26.73 10.08 5.46)" gradientUnits="userSpaceOnUse"/>
    <linearGradient xlink:href="#b" id="v" x2="1" gradientTransform="scale(272.83 -272.83) rotate(-55.71 -.73 -4.75)" gradientUnits="userSpaceOnUse"/>
    <linearGradient xlink:href="#c" id="w" x2="1" gradientTransform="translate(-.03 2103.6) scale(206.85)" gradientUnits="userSpaceOnUse"/>
    <linearGradient xlink:href="#d" id="x" x2="1" gradientTransform="scale(240.6 -240.6) rotate(-47.81 -1.94 -7.02)" gradientUnits="userSpaceOnUse"/>
    <linearGradient xlink:href="#e" id="y" x2="1" gradientTransform="scale(72.066 -72.066) rotate(-71.57 -2.57 -15.01)" gradientUnits="userSpaceOnUse"/>
    <linearGradient xlink:href="#f" id="z" x2="1" gradientTransform="matrix(-107.33 0 0 107.33 1028.1 1103.6)" gradientUnits="userSpaceOnUse"/>
    <linearGradient xlink:href="#g" id="A" x2="1" gradientTransform="scale(104.4 -104.4) rotate(43.51 17.8 7.32)" gradientUnits="userSpaceOnUse"/>
    <linearGradient id="h" x2="1" gradientTransform="scale(272.83 -272.83) rotate(-55.71 -.73 -4.75)" gradientUnits="userSpaceOnUse">
      <stop offset="0" stop-color="#4c8348"/>
      <stop offset=".24" stop-color="#508e54"/>
      <stop offset="1" stop-color="#90db85"/>
    </linearGradient>
    <linearGradient id="i" x2="1" gradientTransform="scale(104.4 -104.4) rotate(43.51 17.73 7.49)" gradientUnits="userSpaceOnUse">
      <stop offset="0" stop-color="#8dd981"/>
      <stop offset="1" stop-color="#aae7a1"/>
    </linearGradient>
    <linearGradient id="j" x2="1" gradientTransform="scale(240.6 -240.6) rotate(-47.81 -1.94 -7.02)" gradientUnits="userSpaceOnUse">
      <stop offset="0" stop-color="#84d579"/>
      <stop offset="1" stop-color="#aae7a1"/>
    </linearGradient>
    <linearGradient id="k" x2="1" gradientTransform="matrix(-107.33 0 0 107.33 1028.1 1103.6)" gradientUnits="userSpaceOnUse">
      <stop offset="0" stop-color="#8dd981"/>
      <stop offset=".76" stop-color="#6fb063"/>
      <stop offset=".84" stop-color="#6fb063"/>
      <stop offset="1" stop-color="#6fb063"/>
    </linearGradient>
    <linearGradient id="l" x2="1" gradientTransform="scale(236.85 -236.85) rotate(26.73 10.08 5.46)" gradientUnits="userSpaceOnUse">
      <stop offset="0" stop-color="#6ba75f"/>
      <stop offset="1" stop-color="#4d8148"/>
    </linearGradient>
    <linearGradient id="m" x2="1" gradientTransform="scale(95.482 -95.482) rotate(-71.57 -1.94 -11.33)" gradientUnits="userSpaceOnUse">
      <stop offset="0" stop-color="#6fb063"/>
      <stop offset=".85" stop-color="#629d59"/>
      <stop offset="1" stop-color="#629d59"/>
    </linearGradient>
  </defs>
  <path fill="url(#n)" d="M1000.2 750 793.1 855.62l207.1 101.48Z" transform="matrix(.51185 0 0 -.51185 -383.86 639.87)"/>
  <path fill="none" stroke="#726691" stroke-miterlimit="10" stroke-width=".05" d="m0 0-207.1 105.62L0 207.1Z" transform="matrix(.51185 0 0 -.51185 128.1 255.98)"/>
  <path fill="url(#o)" d="m1000.2 957.1 206.77-101.92L1000.2 750Z" transform="matrix(.51185 0 0 -.51185 -383.86 639.87)"/>
  <path fill="none" stroke="url(#p)" stroke-miterlimit="10" stroke-width=".05" d="m0 0 206.77-101.92L0-207.1Z" transform="matrix(.51185 0 0 -.51185 128.1 149.97)"/>
  <path fill="url(#q)" d="m1122.5 1016.8 84.48-161.61-206.77 101.92z" transform="matrix(.51185 0 0 -.51185 -383.86 639.87)"/>
  <path fill="none" stroke="#b5a7db" stroke-miterlimit="10" stroke-width=".05" d="m0 0 84.48-161.62L-122.3-59.7Z" transform="matrix(.51185 0 0 -.51185 190.7 119.42)"/>
  <path fill="url(#r)" d="m878 1017.1 122.16-59.95-207.1-101.48z" transform="matrix(.51185 0 0 -.51185 -383.86 639.87)"/>
  <path fill="none" stroke="#8073a3" stroke-miterlimit="10" stroke-width=".05" d="m0 0 122.16-59.95-207.1-101.48z" transform="matrix(.51185 0 0 -.51185 65.54 119.26)"/>
  <path fill="url(#s)" d="M1000.2 957.1V1250l-122.16-232.94Z" transform="matrix(.51185 0 0 -.51185 -383.86 639.87)"/>
  <path fill="none" stroke="#9688bd" stroke-miterlimit="10" stroke-width=".05" d="M0 0v292.9L-122.16 59.96Z" transform="matrix(.51185 0 0 -.51185 128.1 149.97)"/>
  <path fill="url(#t)" d="M1000.2 957.1V1250l122.29-233.2z" transform="matrix(.51185 0 0 -.51185 -383.86 639.87)"/>
  <path fill="none" stroke="#afa0d8" stroke-miterlimit="10" stroke-width=".05" d="M0 0v292.9L122.29 59.7Z" transform="matrix(.51185 0 0 -.51185 128.1 149.97)"/>
  <path fill="url(#u)" d="M1000.2 750 793.1 855.62l207.1 101.48Z" transform="matrix(.51185 0 0 -.51185 -383.86 639.87)"/>
  <path fill="none" stroke="#726691" stroke-miterlimit="10" stroke-width=".05" d="m0 0-207.1 105.62L0 207.1Z" transform="matrix(.51185 0 0 -.51185 128.1 255.98)"/>
  <path fill="url(#v)" d="m1000.2 957.1 206.77-101.92L1000.2 750Z" transform="matrix(.51185 0 0 -.51185 -383.86 639.87)"/>
  <path fill="none" stroke="url(#w)" stroke-miterlimit="10" stroke-width=".05" d="m0 0 206.77-101.92L0-207.1Z" transform="matrix(.51185 0 0 -.51185 128.1 149.97)"/>
  <path fill="url(#x)" d="m1122.5 1016.8 84.48-161.61-206.77 101.92z" transform="matrix(.51185 0 0 -.51185 -383.86 639.87)"/>
  <path fill="none" stroke="#b5a7db" stroke-miterlimit="10" stroke-width=".05" d="m0 0 84.48-161.62L-122.3-59.7Z" transform="matrix(.51185 0 0 -.51185 190.7 119.42)"/>
  <path fill="url(#y)" d="m878 1017.1 122.16-59.95-207.1-101.48z" transform="matrix(.51185 0 0 -.51185 -383.86 639.87)"/>
  <path fill="none" stroke="#8073a3" stroke-miterlimit="10" stroke-width=".05" d="m0 0 122.16-59.95-207.1-101.48z" transform="matrix(.51185 0 0 -.51185 65.54 119.26)"/>
  <path fill="url(#z)" d="M1000.2 957.1V1250l-122.16-232.94Z" transform="matrix(.51185 0 0 -.51185 -383.86 639.87)"/>
  <path fill="none" stroke="#9688bd" stroke-miterlimit="10" stroke-width=".05" d="M0 0v292.9L-122.16 59.96Z" transform="matrix(.51185 0 0 -.51185 128.1 149.97)"/>
  <path fill="url(#A)" d="M1000.2 957.1V1250l122.29-233.2z" transform="matrix(.51185 0 0 -.51185 -383.86 639.87)"/>
  <path fill="none" stroke="#afa0d8" stroke-miterlimit="10" stroke-width=".05" d="M0 0v292.9L122.29 59.7Z" transform="matrix(.51185 0 0 -.51185 128.1 149.97)"/>
  <g>
    <path fill="url(#B)" d="M1000.2 750 793.1 855.62l207.1 101.48Z" transform="matrix(.51185 0 0 -.51185 -383.86 639.87)"/>
    <path fill="none" stroke="#726691" stroke-miterlimit="10" stroke-width=".05" d="m0 0-207.1 105.62L0 207.1Z" transform="matrix(.51185 0 0 -.51185 128.1 255.98)"/>
    <path fill="url(#C)" d="m1000.2 957.1 206.77-101.92L1000.2 750Z" transform="matrix(.51185 0 0 -.51185 -383.86 639.87)"/>
    <path fill="none" stroke="url(#D)" stroke-miterlimit="10" stroke-width=".05" d="m0 0 206.77-101.92L0-207.1Z" transform="matrix(.51185 0 0 -.51185 128.1 149.97)"/>
    <path fill="url(#E)" d="m1122.5 1016.8 84.48-161.61-206.77 101.92z" transform="matrix(.51185 0 0 -.51185 -383.86 639.87)"/>
    <path fill="none" stroke="#b5a7db" stroke-miterlimit="10" stroke-width=".05" d="m0 0 84.48-161.62L-122.3-59.7Z" transform="matrix(.51185 0 0 -.51185 190.7 119.42)"/>
    <path fill="url(#F)" d="m878 1017.1 122.16-59.95-207.1-101.48z" transform="matrix(.51185 0 0 -.51185 -383.86 639.87)"/>
    <path fill="none" stroke="#8073a3" stroke-miterlimit="10" stroke-width=".05" d="m0 0 122.16-59.95-207.1-101.48z" transform="matrix(.51185 0 0 -.51185 65.54 119.26)"/>
    <path fill="url(#G)" d="M1000.2 957.1V1250l-122.16-232.94Z" transform="matrix(.51185 0 0 -.51185 -383.86 639.87)"/>
    <path fill="none" stroke="#9688bd" stroke-miterlimit="10" stroke-width=".05" d="M0 0v292.9L-122.16 59.96Z" transform="matrix(.51185 0 0 -.51185 128.1 149.97)"/>
    <path fill="url(#H)" d="M1000.2 957.1V1250l122.29-233.2z" transform="matrix(.51185 0 0 -.51185 -383.86 639.87)"/>
    <path fill="none" stroke="#afa0d8" stroke-miterlimit="10" stroke-width=".05" d="M0 0v292.9L122.29 59.7Z" transform="matrix(.51185 0 0 -.51185 128.1 149.97)"/>
    <path fill="url(#I)" d="M1000.2 750 793.1 855.62l207.1 101.48Z" transform="matrix(.51185 0 0 -.51185 -383.86 639.87)"/>
    <path fill="none" stroke="#726691" stroke-miterlimit="10" stroke-width=".05" d="m0 0-207.1 105.62L0 207.1Z" transform="matrix(.51185 0 0 -.51185 128.1 255.98)"/>
    <path fill="url(#J)" d="m1000.2 957.1 206.77-101.92L1000.2 750Z" transform="matrix(.51185 0 0 -.51185 -383.86 639.87)"/>
    <path fill="none" stroke="url(#K)" stroke-miterlimit="10" stroke-width=".05" d="m0 0 206.77-101.92L0-207.1Z" transform="matrix(.51185 0 0 -.51185 128.1 149.97)"/>
    <path fill="url(#L)" d="m1122.5 1016.8 84.48-161.61-206.77 101.92z" transform="matrix(.51185 0 0 -.51185 -383.86 639.87)"/>
    <path fill="none" stroke="#b5a7db" stroke-miterlimit="10" stroke-width=".05" d="m0 0 84.48-161.62L-122.3-59.7Z" transform="matrix(.51185 0 0 -.51185 190.7 119.42)"/>
    <path fill="url(#M)" d="m878 1017.1 122.16-59.95-207.1-101.48z" transform="matrix(.51185 0 0 -.51185 -383.86 639.87)"/>
    <path fill="none" stroke="#8073a3" stroke-miterlimit="10" stroke-width=".05" d="m0 0 122.16-59.95-207.1-101.48z" transform="matrix(.51185 0 0 -.51185 65.54 119.26)"/>
    <path fill="url(#N)" d="M1000.2 957.1V1250l-122.16-232.94Z" transform="matrix(.51185 0 0 -.51185 -383.86 639.87)"/>
    <path fill="none" stroke="#9688bd" stroke-miterlimit="10" stroke-width=".05" d="M0 0v292.9L-122.16 59.96Z" transform="matrix(.51185 0 0 -.51185 128.1 149.97)"/>
    <path fill="url(#O)" d="M1000.2 957.1V1250l122.29-233.2z" transform="matrix(.51185 0 0 -.51185 -383.86 639.87)"/>
    <path fill="none" stroke="#afa0d8" stroke-miterlimit="10" stroke-width=".05" d="M0 0v292.9L122.29 59.7Z" transform="matrix(.51185 0 0 -.51185 128.1 149.97)"/>
  </g>
</svg>
